# xmcd
#
# Track frame offsets: 
#        150
#        15935
#        29472
#        41512
#        62862
#        85352
#        96865
#        112162
#        132255
#        159350
#        177230
#        193495
#        212255
#        225620
#        235550
#        245872
#        257622
#        270627
#        289980
#        304885
#        315577
#        325287
#
# Disc length: 4637 seconds
#
# Revision: 2
# Processed by: cddbd v1.5.2PL0 Copyright (c) Steve Scherf et al.
# Submitted via: ExactAudioCopyFreeDBPlugin 1.0
#
DISCID=39121b16
DTITLE=Various Artist - Svensk Jazzhistoria Vol. 8 1956-1959: Topsy T
DTITLE=heme [Disc 2]
DYEAR=2002
DGENRE=Jazz
TTITLE0=Harry Arnolds Radioband - Stand By (This Is Harry)
TTITLE1=Harry Arnolds and his Swedish Radio Studio Orchestra - Sunday
TTITLE2=Almstedt-Lind-Kvartetten - Fascinating Rhythm
TTITLE3=Expressens Elitorkester 1957, Gunnar Nilson sång - Summertime
TTITLE4=Hacke Björkstens All Star Sextet - Go Home Swanson
TTITLE5=Rolf Blomquist Ensemble - My Old Cat Felix
TTITLE6=Östen Hedenbratts Trio - A Dream Of Alice
TTITLE7=Jan Johansson,Gunnar Johnson, Egil Johansen - The Definite New
TTITLE7=Jazz Suite
TTITLE8=Nannie Porres Och Jazz Club '57 - Lover Man
TTITLE9=Jazz Club 1957 - I'll Remember April
TTITLE10=Gösta Theselius Orkester - Cobra
TTITLE11=Jack Lidström and The Hep Cats - Blues à la Faz
TTITLE12=Arne Domnérus Orkester - Topsy Theme (Topsy Turvy)
TTITLE13=Gunnar Johnson Quintet - Blues For Lange
TTITLE14=Anders Burman Sextet - If I Were A Bell
TTITLE15=Almstedt-Lind-Sextetten - Bad Road
TTITLE16=Putte Wickman Sextet - I'd Like To Recognize The Tune
TTITLE17=Putte Wickman Sextet - Opus De Funk
TTITLE18=Rolf Lindells Orkester - Broadway
TTITLE19=Monica Zetterlund, Gunnar Svenssons Orkester - It's Alright W
TTITLE19=ith Me
TTITLE20=Carl-Henrik Norins Orkester - Mumin
TTITLE21=Jan Allan Quartet - I Could Write A Book
EXTD=
EXTT0=
EXTT1=
EXTT2=
EXTT3=
EXTT4=
EXTT5=
EXTT6=
EXTT7=
EXTT8=
EXTT9=
EXTT10=
EXTT11=
EXTT12=
EXTT13=
EXTT14=
EXTT15=
EXTT16=
EXTT17=
EXTT18=
EXTT19=
EXTT20=
EXTT21=
PLAYORDER=
